# xmcd
#
# Track frame offsets: 
#        183
#        15508
#        31658
#        40763
#        58633
#        70255
#        83173
#        94200
#        110155
#        128910
#        142533
#        156465
#        175358
#        188038
#        200980
#        217103
#        229300
#        241813
#        261278
#        274935
#
# Disc length: 3876 seconds
#
# Revision: 10
# Processed by: cddbd v1.5.2PL0 Copyright (c) Steve Scherf et al.
# Submitted via: ExactAudioCopy v1.3
#
DISCID=240f2214
DTITLE=Various Artist - The BEst Country Album In The World Ever.. Disc 2t
DYEAR=1994
DGENRE=Country
TTITLE0=Billy Ray Cyrus -  Achy Breaky Heart
TTITLE1=The Charlie Daniels Band - The Devil Went To Georgia
TTITLE2=Johnnie Allan  -  The Promised Land
TTITLE3=Billy Swan - I Can help
TTITLE4=Johnny Cash -  Ring Of Fire
TTITLE5=Bobbie Gentry -  I'll Never Fall In Love Again
TTITLE6=Roger Miller -  King Of The Road
TTITLE7=Joe South -  Games People Play
TTITLE8=Jimmy Buffet  -  Margaritaville
TTITLE9=Glen Campbell  -  Wichita Lineman
TTITLE10=Dolly Parton -  I Will Always Love You
TTITLE11=Nanci Griffith -  From A Distance
TTITLE12=Patsy Cline -  I Fall To Pieces
TTITLE13=Dr Hook -  A Little Bit More
TTITLE14=Kenny Rogers -  Lucille
TTITLE15=Billie Jo Spears -  What I've Got In Mind
TTITLE16=Roy Orbison -  It's Over
TTITLE17=Kris Kristofferson -  Me and Bobby McGee
TTITLE18=Willie Nelson -  Funny How Time Slips Away
TTITLE19=The Band -  The Night They Drove Old Dizie Down
EXTD=YEAR: 1994
EXTT0=
EXTT1=
EXTT2=
EXTT3=
EXTT4=
EXTT5=
EXTT6=
EXTT7=
EXTT8=
EXTT9=
EXTT10=
EXTT11=
EXTT12=
EXTT13=
EXTT14=
EXTT15=
EXTT16=
EXTT17=
EXTT18=
EXTT19=
PLAYORDER=
